<svg width="16" height="16" viewBox="0 0 16 16" fill="none" xmlns="http://www.w3.org/2000/svg">
<path opacity="0.2" d="M15.9992 15.7511C15.9992 15.6147 12.6399 15.5023 8.50099 15.5023C4.36205 15.5023 1.00278 15.6147 1.00278 15.7511C1.00278 15.8876 4.36205 16 8.50099 16C12.6495 16 15.9992 15.8876 15.9992 15.7511Z" fill="#5D5D5D"/>
<path d="M8.60685 3.14929C11.8699 3.14929 14.5169 5.35663 14.5169 8.07768V13.0061H8.60685C5.34383 13.0061 2.69684 10.7987 2.69684 8.07768V3.14929H8.60685Z" fill="#63A60E"/>
<path opacity="0.3" d="M13.6698 5.54126C13.1789 6.01483 12.8806 6.63289 12.8806 7.30713C12.8806 8.31047 13.5351 9.18538 14.5073 9.65896V8.0777C14.5073 7.15463 14.2089 6.28774 13.6698 5.54126Z" fill="#63A60E"/>
<path d="M11.3501 3.71912C10.4261 4.16058 9.81003 4.98733 9.81003 5.94251C9.81003 7.35521 11.1865 8.50303 12.8805 8.50303C13.4773 8.50303 14.0356 8.35855 14.5072 8.10972V8.07761C14.5072 6.18331 13.2271 4.53784 11.3501 3.71912Z" fill="#63A60E"/>
<path opacity="0.5" d="M6.71064 4.10425C5.18982 4.10425 3.79414 4.54572 2.69684 5.2922V8.08549C2.69684 10.8065 5.34383 13.0139 8.60685 13.0139H11.4367C12.4666 12.0667 13.0923 10.8146 13.0923 9.43398C13.0923 6.48818 10.2335 4.10425 6.71064 4.10425Z" fill="#F8F6EC"/>
<path d="M14.5072 12.9989L8.60685 13.007C5.34383 13.007 2.69684 10.7996 2.69684 8.07857V3.1582L14.5072 12.9989Z" fill="#63A60E"/>
<path opacity="0.3" d="M3.61127 4.91511C3.61127 8.65554 7.24968 11.6816 11.7255 11.6816C12.1105 11.6816 12.4859 11.6575 12.8517 11.6174L3.68827 3.98401C3.64014 4.28902 3.61127 4.60206 3.61127 4.91511Z" fill="#63A60E"/>
<path opacity="0.3" d="M14.5072 13.006L2.74496 3.19739C4.13103 4.92313 5.72885 6.67295 7.35555 8.11775C8.6261 9.24149 12.2934 11.7538 14.5072 13.006Z" fill="#63A60E"/>
<path opacity="0.3" d="M6.55664 6.36888L2.69684 3.1582V8.0866C2.69684 10.2618 4.39091 12.108 6.72989 12.7581C5.72885 11.9153 5.11282 10.7595 5.11282 9.49127C5.11282 8.28726 5.66147 7.19563 6.55664 6.36888Z" fill="#63A60E"/>
<path opacity="0.3" d="M11.8121 10.7585C10.8111 11.7779 9.29027 12.4361 7.58657 12.4361C6.45076 12.4361 5.39197 12.1472 4.51605 11.6495C5.57485 12.4923 7.00904 13.014 8.59724 13.014H14.5073V13.006L11.8121 10.7585Z" fill="#63A60E"/>
<path opacity="0.3" d="M3.04335 6.104C3.04335 5.30936 3.20699 4.5388 3.515 3.83245L2.69684 3.1582V8.0866C2.69684 10.8076 5.34383 13.015 8.60685 13.015H14.5169V13.007L13.9297 12.5173C13.0731 12.7742 12.1586 12.9106 11.1961 12.9106C6.69139 12.9026 3.04335 9.8605 3.04335 6.104Z" fill="#F8F6EC"/>
<path d="M14.411 13.9613C14.8249 13.865 15.258 14.0737 15.3639 14.4188C15.4794 14.764 15.2291 15.1252 14.8056 15.2135C14.3917 15.3098 13.9586 15.1011 13.8527 14.7559C13.7468 14.4108 13.9971 14.0576 14.411 13.9613ZM14.257 13.4717C13.5158 13.6402 13.073 14.2663 13.2752 14.8844C13.4677 15.5024 14.2281 15.8716 14.9692 15.7031C15.7104 15.5345 16.1532 14.9004 15.951 14.2904C15.7585 13.6723 14.9981 13.3111 14.257 13.4717Z" fill="#63A60E"/>
<path opacity="0.5" d="M15.2386 14.9805C15.1328 15.0929 14.9884 15.1812 14.8151 15.2213C14.4012 15.3177 13.9681 15.109 13.8622 14.7638C13.7852 14.507 13.8911 14.2501 14.1221 14.0976C14.0066 13.9611 13.9103 13.8086 13.8141 13.6561C13.3521 13.929 13.121 14.4187 13.2751 14.9003C13.4676 15.5183 14.228 15.8876 14.9691 15.719C15.3156 15.6387 15.5948 15.4621 15.7777 15.2294C15.5948 15.1491 15.4119 15.0688 15.2386 14.9805Z" fill="#63A60E"/>
<path d="M2.97586 13.9617C3.38975 13.8734 3.82289 14.0821 3.92877 14.4273C4.03465 14.7724 3.78439 15.1336 3.3705 15.2219C2.95661 15.3102 2.52346 15.1015 2.41758 14.7564C2.3117 14.4112 2.56196 14.05 2.97586 13.9617ZM2.82185 13.4721C2.08069 13.6326 1.63792 14.2667 1.83043 14.8848C2.02294 15.5028 2.78335 15.8721 3.52451 15.7115C4.26566 15.551 4.70843 14.9169 4.52555 14.2988C4.32342 13.6808 3.56301 13.3116 2.82185 13.4721Z" fill="#63A60E"/>
<path opacity="0.5" d="M3.79413 14.9885C3.68825 15.1009 3.54387 15.1892 3.37061 15.2213C2.95672 15.3096 2.52357 15.1009 2.41769 14.7558C2.34069 14.4989 2.45619 14.242 2.67758 14.0895C2.56207 13.9531 2.46582 13.8006 2.37919 13.6481C1.91717 13.913 1.67653 14.4026 1.83054 14.8842C2.02305 15.5022 2.78346 15.8715 3.52462 15.7109C3.87113 15.6387 4.15989 15.4541 4.33315 15.2213C4.14064 15.1571 3.96739 15.0768 3.79413 14.9885Z" fill="#63A60E"/>
<path d="M3.07224 2.81215C2.88935 2.81215 2.73535 2.68372 2.73535 2.53121C2.73535 1.87302 2.51396 1.37537 2.09044 1.04628C1.40704 0.508486 0.377117 0.564673 0.367491 0.564673C0.184608 0.580727 0.0209758 0.460326 0.00172497 0.307819C-0.0175259 0.155312 0.126856 0.0188577 0.309739 0.00280433C0.367491 0.00280433 1.63805 -0.0774627 2.54284 0.62086C3.12036 1.06233 3.40913 1.70446 3.40913 2.52319C3.40913 2.68372 3.26475 2.81215 3.07224 2.81215Z" fill="#63A60E"/>
</svg>
