<svg width="16" height="16" viewBox="0 0 16 16" fill="none" xmlns="http://www.w3.org/2000/svg">
<path d="M15.8989 2.01937C15.8113 1.9099 15.6787 1.84619 15.5385 1.84619H3.25475L2.91125 0.35775C2.8629 0.148344 2.67643 0 2.46153 0H0.461531C0.206656 0 0 0.206656 0 0.461562C0 0.716468 0.206656 0.923093 0.461531 0.923093H2.09437L4.426 11.0269C4.47431 11.2363 4.66081 11.3846 4.87571 11.3846H14.123C14.378 11.3846 14.5846 11.178 14.5846 10.9231C14.5846 10.6682 14.3779 10.4616 14.123 10.4616H5.2429L4.8879 8.92308H14.1539C14.3697 8.92308 14.5568 8.77346 14.6041 8.56287L15.9887 2.40903C16.0195 2.27222 15.9865 2.12887 15.8989 2.01937ZM13.7846 7.99999H4.67487L3.46778 2.76925H14.9615L13.7846 7.99999Z" fill="white" fill-opacity="0.5"/>
<path d="M6.76922 12C5.83609 12 5.0769 12.7591 5.0769 13.6923C5.0769 14.6255 5.83606 15.3846 6.76922 15.3846C7.70234 15.3846 8.46153 14.6255 8.46153 13.6923C8.46153 12.7591 7.70237 12 6.76922 12ZM6.76922 14.4615C6.34506 14.4615 6 14.1165 6 13.6923C6 13.2681 6.34506 12.9231 6.76922 12.9231C7.19337 12.9231 7.53843 13.2681 7.53843 13.6923C7.53843 14.1165 7.19337 14.4615 6.76922 14.4615Z" fill="white" fill-opacity="0.5"/>
<path d="M12.3077 12C11.3745 12 10.6154 12.7591 10.6154 13.6923C10.6154 14.6255 11.3745 15.3846 12.3077 15.3846C13.2408 15.3846 14 14.6255 14 13.6923C14 12.7591 13.2408 12 12.3077 12ZM12.3077 14.4615C11.8835 14.4615 11.5384 14.1165 11.5384 13.6923C11.5384 13.2682 11.8835 12.9231 12.3077 12.9231C12.7318 12.9231 13.0769 13.2682 13.0769 13.6923C13.0769 14.1165 12.7318 14.4615 12.3077 14.4615Z" fill="white" fill-opacity="0.5"/>
</svg>
